<svg xmlns="http://www.w3.org/2000/svg" xmlns:xlink="http://www.w3.org/1999/xlink" width="500" zoomAndPan="magnify" viewBox="0 0 375 74.999997" height="100" preserveAspectRatio="xMidYMid meet" version="1.0"><defs><clipPath id="c66891da4e"><path d="M 0 12.113281 L 52 12.113281 L 52 53 L 0 53 Z M 0 12.113281 " clip-rule="nonzero"/></clipPath><clipPath id="83cd38ccaf"><path d="M 2 25 L 53.25 25 L 53.25 65.363281 L 2 65.363281 Z M 2 25 " clip-rule="nonzero"/></clipPath><clipPath id="69f2bef5d0"><path d="M 52.839844 23 L 81 23 L 81 65.335938 L 52.839844 65.335938 Z M 52.839844 23 " clip-rule="nonzero"/></clipPath><clipPath id="af7cd564c4"><path d="M 68 45 L 99.339844 45 L 99.339844 65.335938 L 68 65.335938 Z M 68 45 " clip-rule="nonzero"/></clipPath><clipPath id="67909da66f"><path d="M 72 12.085938 L 90 12.085938 L 90 44 L 72 44 Z M 72 12.085938 " clip-rule="nonzero"/></clipPath><clipPath id="ea42dc6f76"><path d="M 78 54 L 90 54 L 90 65.335938 L 78 65.335938 Z M 78 54 " clip-rule="nonzero"/></clipPath><clipPath id="6bf1c3ea25"><path d="M 108.132812 12.085938 L 138.882812 12.085938 L 138.882812 65.335938 L 108.132812 65.335938 Z M 108.132812 12.085938 " clip-rule="nonzero"/></clipPath><clipPath id="2953361a7f"><path d="M 216.734375 22 L 244 22 L 244 64.371094 L 216.734375 64.371094 Z M 216.734375 22 " clip-rule="nonzero"/></clipPath><clipPath id="1cf64124e8"><path d="M 232 44 L 263.234375 44 L 263.234375 64.371094 L 232 64.371094 Z M 232 44 " clip-rule="nonzero"/></clipPath><clipPath id="5685574d64"><path d="M 236 11.121094 L 254 11.121094 L 254 43 L 236 43 Z M 236 11.121094 " clip-rule="nonzero"/></clipPath><clipPath id="dad77e2c7c"><path d="M 241 53 L 254 53 L 254 64.371094 L 241 64.371094 Z M 241 53 " clip-rule="nonzero"/></clipPath><clipPath id="1f22f2e72e"><path d="M 323.441406 9.296875 L 374 9.296875 L 374 62.546875 L 323.441406 62.546875 Z M 323.441406 9.296875 " clip-rule="nonzero"/></clipPath><clipPath id="b58e3e3be4"><path d="M 272.027344 32 L 305 32 L 305 65.335938 L 272.027344 65.335938 Z M 272.027344 32 " clip-rule="nonzero"/></clipPath><clipPath id="1df4f09470"><path d="M 272.027344 12.085938 L 314.777344 12.085938 L 314.777344 65.335938 L 272.027344 65.335938 Z M 272.027344 12.085938 " clip-rule="nonzero"/></clipPath><clipPath id="e07dcd6b42"><path d="M 147.425781 11.121094 L 169 11.121094 L 169 64.371094 L 147.425781 64.371094 Z M 147.425781 11.121094 " clip-rule="nonzero"/></clipPath><clipPath id="a8245a5378"><path d="M 168 11.121094 L 208.175781 11.121094 L 208.175781 64.371094 L 168 64.371094 Z M 168 11.121094 " clip-rule="nonzero"/></clipPath></defs><g clip-path="url(#c66891da4e)"><path fill="#ffffff" d="M 4.429688 12.113281 L 51.566406 12.113281 L 32.046875 44.945312 L 40.917969 44.945312 L 36.871094 52.183594 L 21.664062 52.183594 L 41.050781 19.589844 L 0 19.589844 Z M 4.429688 12.113281 " fill-opacity="1" fill-rule="nonzero"/></g><g clip-path="url(#83cd38ccaf)"><path fill="#ffffff" d="M 49.160156 65.703125 L 2.023438 65.703125 L 21.542969 32.867188 L 12.671875 32.867188 L 16.71875 25.628906 L 31.925781 25.628906 L 12.539062 58.222656 L 53.589844 58.222656 Z M 49.160156 65.703125 " fill-opacity="1" fill-rule="nonzero"/></g><g clip-path="url(#69f2bef5d0)"><path fill="#ffffff" d="M 59.625 65.605469 C 59.730469 65.523438 59.808594 65.402344 59.878906 65.238281 C 63.203125 57.550781 66.535156 49.863281 69.871094 42.179688 C 70.308594 41.160156 70.753906 40.144531 71.242188 39.019531 C 71.375 39.238281 71.453125 39.335938 71.5 39.445312 C 71.980469 40.523438 72.460938 41.597656 72.921875 42.679688 C 73.070312 43.027344 73.28125 43.171875 73.671875 43.167969 C 75.507812 43.152344 77.347656 43.164062 79.183594 43.160156 C 79.425781 43.160156 79.667969 43.125 80.019531 43.09375 C 77.136719 36.441406 74.292969 29.878906 71.453125 23.316406 C 71.394531 23.300781 71.335938 23.289062 71.28125 23.273438 C 65.140625 37.371094 59 51.464844 52.839844 65.605469 Z M 59.625 65.605469 " fill-opacity="1" fill-rule="nonzero"/></g><g clip-path="url(#af7cd564c4)"><path fill="#ffffff" d="M 85.71875 51.652344 C 86.28125 51.648438 86.574219 51.808594 86.804688 52.347656 C 88.636719 56.628906 90.5 60.890625 92.34375 65.164062 C 92.433594 65.375 92.539062 65.519531 92.691406 65.605469 L 99.425781 65.605469 C 99.347656 65.398438 99.308594 65.277344 99.257812 65.164062 C 98.359375 63.070312 97.457031 60.976562 96.550781 58.886719 C 94.710938 54.632812 92.867188 50.378906 91.027344 46.125 C 90.882812 45.789062 90.734375 45.558594 90.28125 45.558594 C 84.035156 45.578125 77.785156 45.574219 71.535156 45.566406 C 71.175781 45.566406 70.984375 45.675781 70.839844 46.019531 C 70.242188 47.464844 69.605469 48.894531 68.988281 50.332031 C 68.808594 50.746094 68.640625 51.160156 68.433594 51.664062 C 68.816406 51.664062 69.085938 51.664062 69.355469 51.664062 C 74.808594 51.664062 80.261719 51.667969 85.71875 51.652344 Z M 85.71875 51.652344 " fill-opacity="1" fill-rule="nonzero"/></g><g clip-path="url(#67909da66f)"><path fill="#ffffff" d="M 89.789062 43.128906 C 89.320312 43.128906 89.015625 43.128906 88.710938 43.128906 C 86.949219 43.128906 85.191406 43.113281 83.429688 43.136719 C 82.976562 43.144531 82.742188 42.988281 82.5625 42.574219 C 79.90625 36.445312 77.234375 30.324219 74.5625 24.199219 C 74.007812 22.921875 73.445312 21.652344 72.90625 20.371094 C 72.828125 20.183594 72.804688 19.910156 72.882812 19.730469 C 73.914062 17.3125 74.964844 14.90625 76.011719 12.5 C 76.0625 12.386719 76.164062 12.296875 76.289062 12.132812 C 80.785156 22.460938 85.253906 32.71875 89.789062 43.128906 Z M 89.789062 43.128906 " fill-opacity="1" fill-rule="nonzero"/></g><g clip-path="url(#ea42dc6f76)"><path fill="#ffffff" d="M 82.855469 65.308594 C 82.917969 65.449219 82.988281 65.542969 83.074219 65.605469 L 89.792969 65.605469 C 89.75 65.488281 89.726562 65.40625 89.695312 65.335938 C 88.125 61.703125 86.558594 58.070312 84.964844 54.449219 C 84.886719 54.273438 84.558594 54.105469 84.347656 54.101562 C 82.644531 54.074219 80.941406 54.085938 79.238281 54.085938 C 78.859375 54.085938 78.476562 54.085938 78.019531 54.085938 C 78.074219 54.289062 78.082031 54.367188 78.113281 54.433594 C 79.695312 58.058594 81.285156 61.679688 82.855469 65.308594 Z M 82.855469 65.308594 " fill-opacity="1" fill-rule="nonzero"/></g><g clip-path="url(#6bf1c3ea25)"><path fill="#ffffff" d="M 127.183594 31.222656 L 115.785156 31.222656 L 115.785156 65.644531 L 108.132812 65.644531 L 108.132812 23.570312 L 120.566406 23.570312 C 124.257812 23.570312 127.257812 26.574219 127.257812 30.265625 C 127.257812 30.589844 127.226562 30.90625 127.183594 31.222656 Z M 136.820312 22.164062 C 136.394531 21.316406 135.90625 20.511719 135.363281 19.746094 C 132.066406 15.121094 126.664062 12.097656 120.566406 12.097656 L 108.132812 12.097656 L 108.132812 19.746094 L 120.566406 19.746094 C 123.824219 19.746094 126.742188 21.234375 128.671875 23.570312 C 130.179688 25.390625 131.082031 27.726562 131.082031 30.265625 C 131.082031 30.589844 131.0625 30.90625 131.035156 31.222656 C 130.910156 32.589844 130.519531 33.878906 129.921875 35.046875 C 128.175781 38.449219 124.640625 40.785156 120.5625 40.785156 L 119.609375 40.785156 L 119.609375 48.433594 L 120.5625 48.433594 C 130.582031 48.433594 138.730469 40.28125 138.730469 30.265625 C 138.730469 27.355469 138.042969 24.605469 136.820312 22.164062 Z M 136.820312 22.164062 " fill-opacity="1" fill-rule="nonzero"/></g><g clip-path="url(#2953361a7f)"><path fill="#ffffff" d="M 223.519531 64.636719 C 223.625 64.554688 223.703125 64.433594 223.773438 64.269531 C 227.097656 56.582031 230.429688 48.894531 233.765625 41.210938 C 234.203125 40.191406 234.648438 39.175781 235.136719 38.050781 C 235.269531 38.269531 235.347656 38.367188 235.394531 38.476562 C 235.875 39.554688 236.355469 40.628906 236.816406 41.710938 C 236.964844 42.058594 237.175781 42.203125 237.566406 42.199219 C 239.402344 42.183594 241.242188 42.195312 243.078125 42.195312 C 243.320312 42.195312 243.5625 42.15625 243.914062 42.125 C 241.03125 35.472656 238.1875 28.910156 235.347656 22.347656 C 235.289062 22.332031 235.230469 22.320312 235.175781 22.304688 C 229.035156 36.402344 222.894531 50.496094 216.734375 64.636719 Z M 223.519531 64.636719 " fill-opacity="1" fill-rule="nonzero"/></g><g clip-path="url(#1cf64124e8)"><path fill="#ffffff" d="M 249.613281 50.683594 C 250.175781 50.679688 250.472656 50.84375 250.699219 51.378906 C 252.53125 55.660156 254.394531 59.921875 256.238281 64.199219 C 256.328125 64.40625 256.433594 64.550781 256.585938 64.636719 L 263.320312 64.636719 C 263.242188 64.429688 263.203125 64.308594 263.152344 64.195312 C 262.253906 62.101562 261.351562 60.007812 260.445312 57.917969 C 258.605469 53.664062 256.761719 49.410156 254.921875 45.15625 C 254.777344 44.820312 254.632812 44.589844 254.179688 44.589844 C 247.929688 44.609375 241.679688 44.605469 235.429688 44.597656 C 235.070312 44.597656 234.878906 44.707031 234.734375 45.050781 C 234.136719 46.496094 233.5 47.925781 232.882812 49.367188 C 232.707031 49.777344 232.535156 50.195312 232.328125 50.695312 C 232.710938 50.695312 232.980469 50.695312 233.25 50.695312 C 238.703125 50.695312 244.15625 50.699219 249.613281 50.683594 Z M 249.613281 50.683594 " fill-opacity="1" fill-rule="nonzero"/></g><g clip-path="url(#5685574d64)"><path fill="#ffffff" d="M 253.683594 42.160156 C 253.214844 42.160156 252.910156 42.160156 252.605469 42.160156 C 250.84375 42.160156 249.085938 42.144531 247.324219 42.167969 C 246.871094 42.175781 246.636719 42.019531 246.457031 41.605469 C 243.800781 35.476562 241.128906 29.355469 238.457031 23.230469 C 237.902344 21.953125 237.339844 20.683594 236.800781 19.402344 C 236.722656 19.214844 236.699219 18.941406 236.777344 18.761719 C 237.808594 16.34375 238.859375 13.9375 239.90625 11.53125 C 239.957031 11.417969 240.058594 11.328125 240.183594 11.164062 C 244.683594 21.492188 249.148438 31.75 253.683594 42.160156 Z M 253.683594 42.160156 " fill-opacity="1" fill-rule="nonzero"/></g><g clip-path="url(#dad77e2c7c)"><path fill="#ffffff" d="M 246.75 64.339844 C 246.8125 64.480469 246.882812 64.574219 246.96875 64.636719 L 253.6875 64.636719 C 253.644531 64.519531 253.621094 64.4375 253.589844 64.367188 C 252.019531 60.734375 250.453125 57.101562 248.859375 53.480469 C 248.78125 53.304688 248.453125 53.136719 248.242188 53.132812 C 246.539062 53.105469 244.835938 53.117188 243.132812 53.117188 C 242.753906 53.117188 242.371094 53.117188 241.917969 53.117188 C 241.96875 53.320312 241.976562 53.398438 242.007812 53.464844 C 243.589844 57.089844 245.179688 60.710938 246.75 64.339844 Z M 246.75 64.339844 " fill-opacity="1" fill-rule="nonzero"/></g><g clip-path="url(#1f22f2e72e)"><path fill="#ffffff" d="M 351.765625 55.636719 C 351.246094 55.679688 350.722656 55.699219 350.195312 55.699219 C 342.480469 55.699219 335.808594 51.25 332.597656 44.777344 C 332.589844 44.792969 339.113281 29.710938 354.050781 23.1875 C 346.355469 25.136719 341.179688 27.839844 337.699219 30.539062 L 337.699219 30.535156 L 337.679688 30.554688 C 336.816406 31.226562 336.054688 31.894531 335.390625 32.550781 C 333.90625 33.890625 332 35.699219 330.609375 37.324219 C 330.582031 36.914062 330.570312 36.496094 330.570312 36.078125 C 330.570312 25.238281 339.355469 16.453125 350.195312 16.453125 C 355.472656 16.453125 360.265625 18.535156 363.792969 21.925781 C 357.265625 38.082031 338.675781 43.59375 338.675781 43.59375 C 356.480469 41.980469 364.488281 34.296875 368.082031 27.984375 C 370.792969 23.222656 370.992188 19.242188 370.992188 19.242188 C 366.089844 13.191406 358.59375 9.320312 350.195312 9.320312 C 335.417969 9.320312 323.441406 21.300781 323.441406 36.074219 C 323.441406 50.851562 335.417969 62.828125 350.195312 62.828125 C 354.511719 62.828125 358.589844 61.808594 362.199219 59.992188 C 364.65625 58.753906 366.898438 57.148438 368.851562 55.25 C 374.984375 48.734375 372.652344 41.347656 372.652344 41.347656 C 365.621094 55.898438 351.765625 55.636719 351.765625 55.636719 " fill-opacity="1" fill-rule="evenodd"/></g><g clip-path="url(#b58e3e3be4)"><path fill="#ffffff" d="M 272.027344 32.71875 L 272.027344 65.609375 L 276.980469 65.609375 L 276.980469 44.84375 L 297.824219 65.609375 L 304.585938 65.609375 Z M 272.027344 32.71875 " fill-opacity="1" fill-rule="nonzero"/></g><g clip-path="url(#1df4f09470)"><path fill="#ffffff" d="M 296.242188 47.28125 C 297.054688 46.664062 297.503906 46.324219 297.960938 45.984375 C 304.53125 41.097656 307.210938 32.816406 304.714844 25.113281 C 302.21875 17.417969 295.183594 12.238281 287.011719 12.171875 C 283.265625 12.140625 279.515625 12.160156 272.027344 12.15625 L 272.027344 17.054688 C 277.523438 17.046875 279.636719 17.039062 281.742188 17.070312 C 284.207031 17.105469 286.703125 17.015625 289.136719 17.328125 C 294.671875 18.027344 299.328125 22.578125 300.390625 28.035156 C 301.527344 33.925781 299.066406 39.609375 294.15625 42.601562 C 293.171875 43.199219 292.542969 43.246094 291.660156 42.347656 C 285.933594 36.53125 280.15625 30.765625 274.347656 25.03125 C 274.234375 24.917969 274.128906 24.800781 272.03125 22.691406 L 272.03125 29.644531 L 279.058594 36.679688 L 279.609375 37.230469 C 281.53125 39.152344 283.449219 41.070312 285.371094 42.996094 C 285.515625 43.136719 285.648438 43.277344 285.792969 43.433594 L 292.089844 49.753906 C 292.257812 49.875 292.421875 50.019531 292.589844 50.1875 C 297.695312 55.359375 302.847656 60.480469 308.003906 65.609375 L 314.734375 65.609375 C 308.453125 59.378906 302.390625 53.371094 296.242188 47.28125 Z M 296.242188 47.28125 " fill-opacity="1" fill-rule="nonzero"/></g><g clip-path="url(#e07dcd6b42)"><path fill="#ec4899" d="M 156.769531 11.125 L 147.425781 11.125 L 157.914062 58.933594 C 158.644531 62.261719 161.648438 64.679688 165.058594 64.679688 C 166.191406 64.679688 167.28125 64.40625 168.257812 63.925781 Z M 156.769531 11.125 " fill-opacity="1" fill-rule="nonzero"/></g><g clip-path="url(#a8245a5378)"><path fill="#ffffff" d="M 198.691406 11.125 L 190.398438 48.894531 L 184.878906 23.679688 C 184.148438 20.34375 181.140625 17.921875 177.726562 17.921875 C 174.3125 17.921875 171.304688 20.34375 170.574219 23.679688 L 168.460938 33.339844 L 173.132812 54.6875 L 177.726562 33.695312 L 183.253906 58.929688 C 183.980469 62.261719 186.988281 64.679688 190.398438 64.679688 C 193.804688 64.679688 196.8125 62.261719 197.542969 58.933594 L 208.039062 11.125 Z M 198.691406 11.125 " fill-opacity="1" fill-rule="nonzero"/></g></svg>