<svg xmlns="http://www.w3.org/2000/svg" xmlns:xlink="http://www.w3.org/1999/xlink" width="500" zoomAndPan="magnify" viewBox="0 0 375 74.999997" height="100" preserveAspectRatio="xMidYMid meet" version="1.0"><defs><g/><clipPath id="0c92d8d4ec"><path d="M 5.636719 3.476562 L 79.75 3.476562 L 79.75 71.261719 L 5.636719 71.261719 Z M 5.636719 3.476562 " clip-rule="nonzero"/></clipPath><clipPath id="5deb75f8ec"><path d="M 13.308594 3.738281 L 72.179688 3.738281 C 76.269531 3.738281 79.585938 7.054688 79.585938 11.148438 L 79.585938 63.851562 C 79.585938 67.945312 76.269531 71.261719 72.179688 71.261719 L 13.308594 71.261719 C 9.214844 71.261719 5.898438 67.945312 5.898438 63.851562 L 5.898438 11.148438 C 5.898438 7.054688 9.214844 3.738281 13.308594 3.738281 Z M 13.308594 3.738281 " clip-rule="nonzero"/></clipPath></defs><g clip-path="url(#0c92d8d4ec)"><g clip-path="url(#5deb75f8ec)"><path fill="#da4f94" d="M 5.898438 3.738281 L 79.488281 3.738281 L 79.488281 71.261719 L 5.898438 71.261719 Z M 5.898438 3.738281 " fill-opacity="1" fill-rule="nonzero"/></g></g><path fill="#ffffff" d="M 21.328125 18.5625 C 18.628906 21.269531 16.421875 23.5625 16.421875 23.652344 C 16.421875 23.742188 16.515625 23.882812 16.628906 23.964844 C 16.746094 24.042969 17.242188 24.488281 17.738281 24.949219 C 19.160156 26.285156 21.742188 28.160156 23.796875 29.359375 C 24.621094 29.84375 27.179688 31.066406 28.105469 31.425781 C 28.636719 31.628906 29.148438 31.832031 29.242188 31.878906 C 29.789062 32.148438 33.519531 33.183594 34.347656 33.296875 C 34.808594 33.359375 35.644531 33.539062 36.027344 33.652344 C 36.109375 33.675781 31.796875 38.070312 26.296875 43.5625 C 20.863281 48.992188 16.421875 53.488281 16.421875 53.558594 C 16.421875 53.726562 26.234375 63.539062 26.40625 63.539062 C 26.476562 63.539062 26.929688 63.179688 27.40625 62.738281 C 29.597656 60.71875 32.835938 58.972656 35.9375 58.148438 C 37.476562 57.738281 37.9375 57.664062 39.714844 57.523438 C 45.183594 57.097656 50.398438 58.703125 54.65625 62.121094 C 55.0625 62.449219 55.574219 62.898438 55.792969 63.125 C 56.011719 63.351562 56.265625 63.535156 56.359375 63.535156 C 56.578125 63.535156 66.34375 53.753906 66.34375 53.535156 C 66.34375 53.289062 64.539062 51.679688 62.601562 50.195312 C 59.59375 47.898438 55.539062 45.835938 51.914062 44.761719 C 51.277344 44.574219 50.640625 44.386719 50.003906 44.195312 C 49.722656 44.109375 49.035156 43.957031 48.472656 43.855469 C 47.910156 43.753906 47.285156 43.644531 47.082031 43.605469 C 46.878906 43.570312 46.714844 43.507812 46.714844 43.46875 C 46.714844 43.429688 51.132812 38.984375 56.53125 33.585938 C 61.925781 28.1875 66.34375 23.703125 66.34375 23.617188 C 66.34375 23.429688 56.5625 13.617188 56.378906 13.617188 C 56.308594 13.617188 55.984375 13.867188 55.652344 14.171875 C 52.578125 17.019531 48.25 19.050781 44.21875 19.535156 C 42.808594 19.707031 39.898438 19.703125 38.566406 19.53125 C 34.5625 19.015625 30.25 17.035156 27.390625 14.398438 C 26.921875 13.96875 26.46875 13.621094 26.386719 13.625 C 26.304688 13.628906 24.027344 15.851562 21.328125 18.5625 " fill-opacity="1" fill-rule="evenodd"/><g fill="#da4f94" fill-opacity="1"><g transform="translate(84.468508, 49.449866)"><g><path d="M 14.140625 -8.109375 L 31.625 -8.109375 L 31.625 0 L 2.890625 0 L 2.890625 -7.53125 L 20.265625 -32.546875 L 2.890625 -32.546875 L 2.890625 -40.65625 L 31.625 -40.65625 L 31.625 -33.125 Z M 14.140625 -8.109375 "/></g></g></g><g fill="#da4f94" fill-opacity="1"><g transform="translate(118.985294, 49.449866)"><g><path d="M 28.90625 -7.1875 L 13.734375 -7.1875 L 11.296875 0 L 0.921875 0 L 15.640625 -40.65625 L 27.109375 -40.65625 L 41.8125 0 L 31.328125 0 Z M 26.359375 -14.828125 L 21.3125 -29.71875 L 16.328125 -14.828125 Z M 26.359375 -14.828125 "/></g></g></g><g fill="#da4f94" fill-opacity="1"><g transform="translate(161.667965, 49.449866)"><g><path d="M 34.578125 -27.578125 C 34.578125 -25.210938 34.035156 -23.054688 32.953125 -21.109375 C 31.867188 -19.160156 30.207031 -17.585938 27.96875 -16.390625 C 25.726562 -15.191406 22.953125 -14.59375 19.640625 -14.59375 L 13.5 -14.59375 L 13.5 0 L 3.59375 0 L 3.59375 -40.65625 L 19.640625 -40.65625 C 22.878906 -40.65625 25.617188 -40.09375 27.859375 -38.96875 C 30.097656 -37.851562 31.773438 -36.3125 32.890625 -34.34375 C 34.015625 -32.375 34.578125 -30.117188 34.578125 -27.578125 Z M 18.875 -22.46875 C 20.769531 -22.46875 22.179688 -22.910156 23.109375 -23.796875 C 24.035156 -24.691406 24.5 -25.953125 24.5 -27.578125 C 24.5 -29.191406 24.035156 -30.441406 23.109375 -31.328125 C 22.179688 -32.222656 20.769531 -32.671875 18.875 -32.671875 L 13.5 -32.671875 L 13.5 -22.46875 Z M 18.875 -22.46875 "/></g></g></g><g fill="#da4f94" fill-opacity="1"><g transform="translate(197.806344, 49.449866)"><g><path d="M 59.546875 -40.65625 L 48.9375 0 L 36.953125 0 L 30.46875 -26.765625 L 23.75 0 L 11.765625 0 L 1.453125 -40.65625 L 12.046875 -40.65625 L 17.890625 -11.0625 L 25.140625 -40.65625 L 36.03125 -40.65625 L 42.984375 -11.0625 L 48.890625 -40.65625 Z M 59.546875 -40.65625 "/></g></g></g><g fill="#da4f94" fill-opacity="1"><g transform="translate(258.731948, 49.449866)"><g><path d="M 28.90625 -7.1875 L 13.734375 -7.1875 L 11.296875 0 L 0.921875 0 L 15.640625 -40.65625 L 27.109375 -40.65625 L 41.8125 0 L 31.328125 0 Z M 26.359375 -14.828125 L 21.3125 -29.71875 L 16.328125 -14.828125 Z M 26.359375 -14.828125 "/></g></g></g><g fill="#da4f94" fill-opacity="1"><g transform="translate(301.41462, 49.449866)"><g><path d="M 24.328125 0 L 15.875 -15.34375 L 13.5 -15.34375 L 13.5 0 L 3.59375 0 L 3.59375 -40.65625 L 20.21875 -40.65625 C 23.414062 -40.65625 26.144531 -40.09375 28.40625 -38.96875 C 30.664062 -37.851562 32.351562 -36.320312 33.46875 -34.375 C 34.59375 -32.425781 35.15625 -30.253906 35.15625 -27.859375 C 35.15625 -25.160156 34.390625 -22.75 32.859375 -20.625 C 31.335938 -18.5 29.09375 -16.992188 26.125 -16.109375 L 35.5 0 Z M 13.5 -22.359375 L 19.640625 -22.359375 C 21.453125 -22.359375 22.8125 -22.800781 23.71875 -23.6875 C 24.625 -24.570312 25.078125 -25.828125 25.078125 -27.453125 C 25.078125 -28.992188 24.625 -30.207031 23.71875 -31.09375 C 22.8125 -31.988281 21.453125 -32.4375 19.640625 -32.4375 L 13.5 -32.4375 Z M 13.5 -22.359375 "/></g></g></g><g fill="#da4f94" fill-opacity="1"><g transform="translate(339.174603, 49.449866)"><g><path d="M 13.5 -32.71875 L 13.5 -24.5 L 26.765625 -24.5 L 26.765625 -16.859375 L 13.5 -16.859375 L 13.5 -7.9375 L 28.5 -7.9375 L 28.5 0 L 3.59375 0 L 3.59375 -40.65625 L 28.5 -40.65625 L 28.5 -32.71875 Z M 13.5 -32.71875 "/></g></g></g><g fill="#da4f94" fill-opacity="1"><g transform="translate(119.642772, 66.09944)"><g><path d="M 1.53125 -4.3125 C 1.75 -4.3125 1.953125 -4.253906 2.140625 -4.140625 C 2.335938 -4.023438 2.492188 -3.875 2.609375 -3.6875 C 2.722656 -3.5 2.78125 -3.289062 2.78125 -3.0625 C 2.78125 -2.832031 2.722656 -2.617188 2.609375 -2.421875 C 2.492188 -2.234375 2.335938 -2.082031 2.140625 -1.96875 C 1.953125 -1.863281 1.75 -1.8125 1.53125 -1.8125 C 1.300781 -1.8125 1.085938 -1.863281 0.890625 -1.96875 C 0.703125 -2.082031 0.550781 -2.234375 0.4375 -2.421875 C 0.332031 -2.617188 0.28125 -2.832031 0.28125 -3.0625 C 0.28125 -3.28125 0.332031 -3.484375 0.4375 -3.671875 C 0.550781 -3.867188 0.703125 -4.023438 0.890625 -4.140625 C 1.085938 -4.253906 1.300781 -4.3125 1.53125 -4.3125 Z M 1.53125 -4.3125 "/></g></g></g><g fill="#da4f94" fill-opacity="1"><g transform="translate(122.671669, 66.09944)"><g/></g></g><g fill="#da4f94" fill-opacity="1"><g transform="translate(125.077483, 66.09944)"><g><path d="M 3.296875 -6.296875 C 3.929688 -6.296875 4.46875 -6.140625 4.90625 -5.828125 C 5.34375 -5.523438 5.632812 -5.078125 5.78125 -4.484375 L 4.546875 -4.1875 C 4.472656 -4.507812 4.316406 -4.765625 4.078125 -4.953125 C 3.847656 -5.140625 3.566406 -5.234375 3.234375 -5.234375 C 2.753906 -5.234375 2.378906 -5.0625 2.109375 -4.71875 C 1.835938 -4.375 1.703125 -3.847656 1.703125 -3.140625 C 1.703125 -2.492188 1.8125 -1.96875 2.03125 -1.5625 C 2.25 -1.164062 2.644531 -0.96875 3.21875 -0.96875 C 3.582031 -0.96875 3.875 -1.082031 4.09375 -1.3125 C 4.320312 -1.539062 4.488281 -1.863281 4.59375 -2.28125 L 5.796875 -1.890625 C 5.628906 -1.222656 5.320312 -0.722656 4.875 -0.390625 C 4.4375 -0.0546875 3.890625 0.109375 3.234375 0.109375 C 2.671875 0.109375 2.175781 -0.0195312 1.75 -0.28125 C 1.320312 -0.539062 0.988281 -0.90625 0.75 -1.375 C 0.519531 -1.851562 0.40625 -2.410156 0.40625 -3.046875 C 0.40625 -3.609375 0.503906 -4.132812 0.703125 -4.625 C 0.898438 -5.125 1.210938 -5.523438 1.640625 -5.828125 C 2.078125 -6.140625 2.628906 -6.296875 3.296875 -6.296875 Z M 3.296875 -6.296875 "/></g></g></g><g fill="#da4f94" fill-opacity="1"><g transform="translate(131.325668, 66.09944)"><g><path d="M 4.78125 -6 C 5.039062 -5.882812 5.257812 -5.6875 5.4375 -5.40625 C 5.613281 -5.132812 5.703125 -4.816406 5.703125 -4.453125 C 5.703125 -3.992188 5.554688 -3.609375 5.265625 -3.296875 C 4.984375 -2.984375 4.582031 -2.796875 4.0625 -2.734375 C 4.28125 -2.578125 4.445312 -2.445312 4.5625 -2.34375 C 4.6875 -2.238281 4.816406 -2.09375 4.953125 -1.90625 C 5.097656 -1.726562 5.273438 -1.472656 5.484375 -1.140625 L 6.203125 0 L 4.703125 0 L 3.703125 -1.5 C 3.472656 -1.84375 3.296875 -2.082031 3.171875 -2.21875 C 3.046875 -2.363281 2.914062 -2.460938 2.78125 -2.515625 C 2.644531 -2.566406 2.445312 -2.59375 2.1875 -2.59375 L 1.875 -2.59375 L 1.875 0 L 0.625 0 L 0.625 -6.203125 L 3.34375 -6.203125 C 3.632812 -6.203125 3.898438 -6.1875 4.140625 -6.15625 C 4.378906 -6.132812 4.59375 -6.082031 4.78125 -6 Z M 3.90625 -3.640625 C 4.050781 -3.691406 4.171875 -3.78125 4.265625 -3.90625 C 4.359375 -4.03125 4.40625 -4.1875 4.40625 -4.375 C 4.40625 -4.707031 4.265625 -4.9375 3.984375 -5.0625 C 3.910156 -5.09375 3.816406 -5.113281 3.703125 -5.125 C 3.597656 -5.144531 3.410156 -5.15625 3.140625 -5.15625 L 1.875 -5.15625 L 1.875 -3.578125 L 2.984375 -3.578125 C 3.429688 -3.578125 3.738281 -3.597656 3.90625 -3.640625 Z M 3.90625 -3.640625 "/></g></g></g><g fill="#da4f94" fill-opacity="1"><g transform="translate(137.573853, 66.09944)"><g><path d="M 6.21875 0 L 4.859375 0 L 4.3125 -1.40625 L 1.84375 -1.40625 L 1.328125 0 L 0 0 L 2.421875 -6.203125 L 3.734375 -6.203125 Z M 2.21875 -2.453125 L 3.921875 -2.453125 L 3.0625 -4.75 Z M 2.21875 -2.453125 "/></g></g></g><g fill="#da4f94" fill-opacity="1"><g transform="translate(143.822038, 66.09944)"><g><path d="M 4.890625 -5.15625 L 1.890625 -5.15625 L 1.890625 -3.671875 L 4.484375 -3.671875 L 4.484375 -2.625 L 1.890625 -2.625 L 1.890625 0 L 0.640625 0 L 0.640625 -6.203125 L 4.890625 -6.203125 Z M 4.890625 -5.15625 "/></g></g></g><g fill="#da4f94" fill-opacity="1"><g transform="translate(149.109625, 66.09944)"><g><path d="M 5.09375 -5.15625 L 3.265625 -5.15625 L 3.265625 0 L 2.015625 0 L 2.015625 -5.15625 L 0.1875 -5.15625 L 0.1875 -6.203125 L 5.09375 -6.203125 Z M 5.09375 -5.15625 "/></g></g></g><g fill="#da4f94" fill-opacity="1"><g transform="translate(154.397212, 66.09944)"><g><path d="M 1.828125 0 L 0.59375 0 L 0.59375 -6.203125 L 1.828125 -6.203125 Z M 1.828125 0 "/></g></g></g><g fill="#da4f94" fill-opacity="1"><g transform="translate(156.803026, 66.09944)"><g><path d="M 4.390625 -2.0625 L 4.390625 -6.203125 L 5.546875 -6.203125 L 5.546875 0 L 4.296875 0 L 1.796875 -4.046875 L 1.796875 0 L 0.640625 0 L 0.640625 -6.203125 L 1.859375 -6.203125 Z M 4.390625 -2.0625 "/></g></g></g><g fill="#da4f94" fill-opacity="1"><g transform="translate(163.051211, 66.09944)"><g><path d="M 3.484375 -6.296875 C 4.191406 -6.296875 4.773438 -6.144531 5.234375 -5.84375 C 5.691406 -5.550781 5.988281 -5.097656 6.125 -4.484375 L 4.875 -4.25 C 4.789062 -4.570312 4.617188 -4.816406 4.359375 -4.984375 C 4.109375 -5.148438 3.820312 -5.234375 3.5 -5.234375 C 3.164062 -5.234375 2.867188 -5.164062 2.609375 -5.03125 C 2.359375 -4.90625 2.160156 -4.722656 2.015625 -4.484375 C 1.804688 -4.160156 1.703125 -3.722656 1.703125 -3.171875 C 1.703125 -2.515625 1.847656 -1.984375 2.140625 -1.578125 C 2.441406 -1.171875 2.890625 -0.96875 3.484375 -0.96875 C 3.734375 -0.96875 3.984375 -1.015625 4.234375 -1.109375 C 4.492188 -1.203125 4.726562 -1.332031 4.9375 -1.5 L 4.9375 -2.28125 L 3.515625 -2.28125 L 3.515625 -3.328125 L 6.203125 -3.328125 L 6.203125 -0.859375 C 5.890625 -0.566406 5.488281 -0.332031 5 -0.15625 C 4.519531 0.0195312 4.039062 0.109375 3.5625 0.109375 C 2.863281 0.109375 2.28125 -0.0351562 1.8125 -0.328125 C 1.34375 -0.617188 0.992188 -1.003906 0.765625 -1.484375 C 0.535156 -1.972656 0.421875 -2.515625 0.421875 -3.109375 C 0.421875 -3.691406 0.53125 -4.222656 0.75 -4.703125 C 0.976562 -5.179688 1.320312 -5.566406 1.78125 -5.859375 C 2.238281 -6.148438 2.804688 -6.296875 3.484375 -6.296875 Z M 3.484375 -6.296875 "/></g></g></g><g fill="#da4f94" fill-opacity="1"><g transform="translate(169.784014, 66.09944)"><g/></g></g><g fill="#da4f94" fill-opacity="1"><g transform="translate(172.189829, 66.09944)"><g><path d="M 1.828125 0 L 0.59375 0 L 0.59375 -6.203125 L 1.828125 -6.203125 Z M 1.828125 0 "/></g></g></g><g fill="#da4f94" fill-opacity="1"><g transform="translate(174.595643, 66.09944)"><g><path d="M 4.390625 -2.0625 L 4.390625 -6.203125 L 5.546875 -6.203125 L 5.546875 0 L 4.296875 0 L 1.796875 -4.046875 L 1.796875 0 L 0.640625 0 L 0.640625 -6.203125 L 1.859375 -6.203125 Z M 4.390625 -2.0625 "/></g></g></g><g fill="#da4f94" fill-opacity="1"><g transform="translate(180.843828, 66.09944)"><g><path d="M 4.390625 -2.0625 L 4.390625 -6.203125 L 5.546875 -6.203125 L 5.546875 0 L 4.296875 0 L 1.796875 -4.046875 L 1.796875 0 L 0.640625 0 L 0.640625 -6.203125 L 1.859375 -6.203125 Z M 4.390625 -2.0625 "/></g></g></g><g fill="#da4f94" fill-opacity="1"><g transform="translate(187.092013, 66.09944)"><g><path d="M 3.375 -6.296875 C 4.019531 -6.296875 4.566406 -6.15625 5.015625 -5.875 C 5.472656 -5.601562 5.8125 -5.222656 6.03125 -4.734375 C 6.257812 -4.253906 6.375 -3.707031 6.375 -3.09375 C 6.375 -2.4375 6.253906 -1.867188 6.015625 -1.390625 C 5.773438 -0.910156 5.425781 -0.539062 4.96875 -0.28125 C 4.519531 -0.0195312 3.992188 0.109375 3.390625 0.109375 C 2.742188 0.109375 2.191406 -0.0195312 1.734375 -0.28125 C 1.285156 -0.550781 0.945312 -0.925781 0.71875 -1.40625 C 0.488281 -1.882812 0.375 -2.4375 0.375 -3.0625 C 0.375 -3.71875 0.488281 -4.285156 0.71875 -4.765625 C 0.945312 -5.253906 1.285156 -5.628906 1.734375 -5.890625 C 2.179688 -6.160156 2.726562 -6.296875 3.375 -6.296875 Z M 1.65625 -3.09375 C 1.65625 -2.613281 1.734375 -2.210938 1.890625 -1.890625 C 2.046875 -1.578125 2.253906 -1.34375 2.515625 -1.1875 C 2.773438 -1.039062 3.0625 -0.96875 3.375 -0.96875 C 3.664062 -0.96875 3.9375 -1.035156 4.1875 -1.171875 C 4.445312 -1.304688 4.660156 -1.53125 4.828125 -1.84375 C 4.992188 -2.164062 5.078125 -2.585938 5.078125 -3.109375 C 5.078125 -3.734375 4.941406 -4.242188 4.671875 -4.640625 C 4.398438 -5.035156 3.96875 -5.234375 3.375 -5.234375 C 2.769531 -5.234375 2.332031 -5.03125 2.0625 -4.625 C 1.789062 -4.226562 1.65625 -3.71875 1.65625 -3.09375 Z M 1.65625 -3.09375 "/></g></g></g><g fill="#da4f94" fill-opacity="1"><g transform="translate(193.824816, 66.09944)"><g><path d="M 2.921875 -1.609375 L 4.4375 -6.203125 L 5.765625 -6.203125 L 3.546875 0 L 2.203125 0 L 0 -6.203125 L 1.359375 -6.203125 Z M 2.921875 -1.609375 "/></g></g></g><g fill="#da4f94" fill-opacity="1"><g transform="translate(199.597032, 66.09944)"><g><path d="M 6.21875 0 L 4.859375 0 L 4.3125 -1.40625 L 1.84375 -1.40625 L 1.328125 0 L 0 0 L 2.421875 -6.203125 L 3.734375 -6.203125 Z M 2.21875 -2.453125 L 3.921875 -2.453125 L 3.0625 -4.75 Z M 2.21875 -2.453125 "/></g></g></g><g fill="#da4f94" fill-opacity="1"><g transform="translate(205.845217, 66.09944)"><g><path d="M 5.09375 -5.15625 L 3.265625 -5.15625 L 3.265625 0 L 2.015625 0 L 2.015625 -5.15625 L 0.1875 -5.15625 L 0.1875 -6.203125 L 5.09375 -6.203125 Z M 5.09375 -5.15625 "/></g></g></g><g fill="#da4f94" fill-opacity="1"><g transform="translate(211.132804, 66.09944)"><g><path d="M 1.828125 0 L 0.59375 0 L 0.59375 -6.203125 L 1.828125 -6.203125 Z M 1.828125 0 "/></g></g></g><g fill="#da4f94" fill-opacity="1"><g transform="translate(213.538618, 66.09944)"><g><path d="M 2.921875 -1.609375 L 4.4375 -6.203125 L 5.765625 -6.203125 L 3.546875 0 L 2.203125 0 L 0 -6.203125 L 1.359375 -6.203125 Z M 2.921875 -1.609375 "/></g></g></g><g fill="#da4f94" fill-opacity="1"><g transform="translate(219.310834, 66.09944)"><g><path d="M 5.234375 -5.15625 L 1.875 -5.15625 L 1.875 -3.78125 L 5 -3.78125 L 5 -2.734375 L 1.875 -2.734375 L 1.875 -1.046875 L 5.34375 -1.046875 L 5.34375 0 L 0.625 0 L 0.625 -6.203125 L 5.234375 -6.203125 Z M 5.234375 -5.15625 "/></g></g></g><g fill="#da4f94" fill-opacity="1"><g transform="translate(225.08305, 66.09944)"><g/></g></g><g fill="#da4f94" fill-opacity="1"><g transform="translate(227.490163, 66.09944)"><g><path d="M 2.796875 -6.296875 C 3.484375 -6.296875 4.046875 -6.144531 4.484375 -5.84375 C 4.921875 -5.539062 5.148438 -5.066406 5.171875 -4.421875 L 3.90625 -4.375 C 3.875 -4.65625 3.769531 -4.875 3.59375 -5.03125 C 3.425781 -5.1875 3.15625 -5.265625 2.78125 -5.265625 C 2.519531 -5.265625 2.28125 -5.21875 2.0625 -5.125 C 1.84375 -5.039062 1.734375 -4.882812 1.734375 -4.65625 C 1.734375 -4.46875 1.828125 -4.316406 2.015625 -4.203125 C 2.210938 -4.085938 2.566406 -3.972656 3.078125 -3.859375 C 3.546875 -3.753906 3.929688 -3.640625 4.234375 -3.515625 C 4.535156 -3.390625 4.796875 -3.1875 5.015625 -2.90625 C 5.234375 -2.632812 5.34375 -2.265625 5.34375 -1.796875 C 5.34375 -1.566406 5.285156 -1.316406 5.171875 -1.046875 C 5.066406 -0.785156 4.890625 -0.554688 4.640625 -0.359375 C 4.453125 -0.210938 4.207031 -0.0976562 3.90625 -0.015625 C 3.601562 0.0664062 3.253906 0.109375 2.859375 0.109375 C 2.085938 0.109375 1.492188 -0.0625 1.078125 -0.40625 C 0.660156 -0.757812 0.40625 -1.296875 0.3125 -2.015625 L 1.53125 -2.125 C 1.65625 -1.332031 2.101562 -0.9375 2.875 -0.9375 C 3.28125 -0.9375 3.582031 -1.019531 3.78125 -1.1875 C 3.988281 -1.363281 4.09375 -1.566406 4.09375 -1.796875 C 4.09375 -1.960938 4.039062 -2.09375 3.9375 -2.1875 C 3.84375 -2.289062 3.6875 -2.378906 3.46875 -2.453125 C 3.25 -2.523438 2.910156 -2.617188 2.453125 -2.734375 C 1.867188 -2.859375 1.398438 -3.066406 1.046875 -3.359375 C 0.703125 -3.660156 0.53125 -4.066406 0.53125 -4.578125 C 0.53125 -4.847656 0.597656 -5.113281 0.734375 -5.375 C 0.878906 -5.632812 1.117188 -5.851562 1.453125 -6.03125 C 1.796875 -6.207031 2.242188 -6.296875 2.796875 -6.296875 Z M 2.796875 -6.296875 "/></g></g></g><g fill="#da4f94" fill-opacity="1"><g transform="translate(233.262379, 66.09944)"><g><path d="M 3.375 -6.296875 C 4.019531 -6.296875 4.566406 -6.15625 5.015625 -5.875 C 5.472656 -5.601562 5.8125 -5.222656 6.03125 -4.734375 C 6.257812 -4.253906 6.375 -3.707031 6.375 -3.09375 C 6.375 -2.4375 6.253906 -1.867188 6.015625 -1.390625 C 5.773438 -0.910156 5.425781 -0.539062 4.96875 -0.28125 C 4.519531 -0.0195312 3.992188 0.109375 3.390625 0.109375 C 2.742188 0.109375 2.191406 -0.0195312 1.734375 -0.28125 C 1.285156 -0.550781 0.945312 -0.925781 0.71875 -1.40625 C 0.488281 -1.882812 0.375 -2.4375 0.375 -3.0625 C 0.375 -3.71875 0.488281 -4.285156 0.71875 -4.765625 C 0.945312 -5.253906 1.285156 -5.628906 1.734375 -5.890625 C 2.179688 -6.160156 2.726562 -6.296875 3.375 -6.296875 Z M 1.65625 -3.09375 C 1.65625 -2.613281 1.734375 -2.210938 1.890625 -1.890625 C 2.046875 -1.578125 2.253906 -1.34375 2.515625 -1.1875 C 2.773438 -1.039062 3.0625 -0.96875 3.375 -0.96875 C 3.664062 -0.96875 3.9375 -1.035156 4.1875 -1.171875 C 4.445312 -1.304688 4.660156 -1.53125 4.828125 -1.84375 C 4.992188 -2.164062 5.078125 -2.585938 5.078125 -3.109375 C 5.078125 -3.734375 4.941406 -4.242188 4.671875 -4.640625 C 4.398438 -5.035156 3.96875 -5.234375 3.375 -5.234375 C 2.769531 -5.234375 2.332031 -5.03125 2.0625 -4.625 C 1.789062 -4.226562 1.65625 -3.71875 1.65625 -3.09375 Z M 1.65625 -3.09375 "/></g></g></g><g fill="#da4f94" fill-opacity="1"><g transform="translate(239.995182, 66.09944)"><g><path d="M 4.890625 -5.15625 L 1.890625 -5.15625 L 1.890625 -3.671875 L 4.484375 -3.671875 L 4.484375 -2.625 L 1.890625 -2.625 L 1.890625 0 L 0.640625 0 L 0.640625 -6.203125 L 4.890625 -6.203125 Z M 4.890625 -5.15625 "/></g></g></g><g fill="#da4f94" fill-opacity="1"><g transform="translate(245.282768, 66.09944)"><g><path d="M 5.09375 -5.15625 L 3.265625 -5.15625 L 3.265625 0 L 2.015625 0 L 2.015625 -5.15625 L 0.1875 -5.15625 L 0.1875 -6.203125 L 5.09375 -6.203125 Z M 5.09375 -5.15625 "/></g></g></g><g fill="#da4f94" fill-opacity="1"><g transform="translate(250.570355, 66.09944)"><g><path d="M 2.25 -1.9375 L 3.375 -6.203125 L 4.859375 -6.203125 L 5.96875 -1.875 L 6.90625 -6.203125 L 8.15625 -6.203125 L 6.65625 0 L 5.328125 0 L 4.078125 -4.625 L 2.859375 0 L 1.5 0 L 0.03125 -6.203125 L 1.3125 -6.203125 Z M 2.25 -1.9375 "/></g></g></g><g fill="#da4f94" fill-opacity="1"><g transform="translate(258.739725, 66.09944)"><g><path d="M 6.21875 0 L 4.859375 0 L 4.3125 -1.40625 L 1.84375 -1.40625 L 1.328125 0 L 0 0 L 2.421875 -6.203125 L 3.734375 -6.203125 Z M 2.21875 -2.453125 L 3.921875 -2.453125 L 3.0625 -4.75 Z M 2.21875 -2.453125 "/></g></g></g><g fill="#da4f94" fill-opacity="1"><g transform="translate(264.98791, 66.09944)"><g><path d="M 4.78125 -6 C 5.039062 -5.882812 5.257812 -5.6875 5.4375 -5.40625 C 5.613281 -5.132812 5.703125 -4.816406 5.703125 -4.453125 C 5.703125 -3.992188 5.554688 -3.609375 5.265625 -3.296875 C 4.984375 -2.984375 4.582031 -2.796875 4.0625 -2.734375 C 4.28125 -2.578125 4.445312 -2.445312 4.5625 -2.34375 C 4.6875 -2.238281 4.816406 -2.09375 4.953125 -1.90625 C 5.097656 -1.726562 5.273438 -1.472656 5.484375 -1.140625 L 6.203125 0 L 4.703125 0 L 3.703125 -1.5 C 3.472656 -1.84375 3.296875 -2.082031 3.171875 -2.21875 C 3.046875 -2.363281 2.914062 -2.460938 2.78125 -2.515625 C 2.644531 -2.566406 2.445312 -2.59375 2.1875 -2.59375 L 1.875 -2.59375 L 1.875 0 L 0.625 0 L 0.625 -6.203125 L 3.34375 -6.203125 C 3.632812 -6.203125 3.898438 -6.1875 4.140625 -6.15625 C 4.378906 -6.132812 4.59375 -6.082031 4.78125 -6 Z M 3.90625 -3.640625 C 4.050781 -3.691406 4.171875 -3.78125 4.265625 -3.90625 C 4.359375 -4.03125 4.40625 -4.1875 4.40625 -4.375 C 4.40625 -4.707031 4.265625 -4.9375 3.984375 -5.0625 C 3.910156 -5.09375 3.816406 -5.113281 3.703125 -5.125 C 3.597656 -5.144531 3.410156 -5.15625 3.140625 -5.15625 L 1.875 -5.15625 L 1.875 -3.578125 L 2.984375 -3.578125 C 3.429688 -3.578125 3.738281 -3.597656 3.90625 -3.640625 Z M 3.90625 -3.640625 "/></g></g></g><g fill="#da4f94" fill-opacity="1"><g transform="translate(271.236095, 66.09944)"><g><path d="M 5.234375 -5.15625 L 1.875 -5.15625 L 1.875 -3.78125 L 5 -3.78125 L 5 -2.734375 L 1.875 -2.734375 L 1.875 -1.046875 L 5.34375 -1.046875 L 5.34375 0 L 0.625 0 L 0.625 -6.203125 L 5.234375 -6.203125 Z M 5.234375 -5.15625 "/></g></g></g><g fill="#da4f94" fill-opacity="1"><g transform="translate(277.008311, 66.09944)"><g/></g></g><g fill="#da4f94" fill-opacity="1"><g transform="translate(279.414126, 66.09944)"><g><path d="M 2.796875 -6.296875 C 3.484375 -6.296875 4.046875 -6.144531 4.484375 -5.84375 C 4.921875 -5.539062 5.148438 -5.066406 5.171875 -4.421875 L 3.90625 -4.375 C 3.875 -4.65625 3.769531 -4.875 3.59375 -5.03125 C 3.425781 -5.1875 3.15625 -5.265625 2.78125 -5.265625 C 2.519531 -5.265625 2.28125 -5.21875 2.0625 -5.125 C 1.84375 -5.039062 1.734375 -4.882812 1.734375 -4.65625 C 1.734375 -4.46875 1.828125 -4.316406 2.015625 -4.203125 C 2.210938 -4.085938 2.566406 -3.972656 3.078125 -3.859375 C 3.546875 -3.753906 3.929688 -3.640625 4.234375 -3.515625 C 4.535156 -3.390625 4.796875 -3.1875 5.015625 -2.90625 C 5.234375 -2.632812 5.34375 -2.265625 5.34375 -1.796875 C 5.34375 -1.566406 5.285156 -1.316406 5.171875 -1.046875 C 5.066406 -0.785156 4.890625 -0.554688 4.640625 -0.359375 C 4.453125 -0.210938 4.207031 -0.0976562 3.90625 -0.015625 C 3.601562 0.0664062 3.253906 0.109375 2.859375 0.109375 C 2.085938 0.109375 1.492188 -0.0625 1.078125 -0.40625 C 0.660156 -0.757812 0.40625 -1.296875 0.3125 -2.015625 L 1.53125 -2.125 C 1.65625 -1.332031 2.101562 -0.9375 2.875 -0.9375 C 3.28125 -0.9375 3.582031 -1.019531 3.78125 -1.1875 C 3.988281 -1.363281 4.09375 -1.566406 4.09375 -1.796875 C 4.09375 -1.960938 4.039062 -2.09375 3.9375 -2.1875 C 3.84375 -2.289062 3.6875 -2.378906 3.46875 -2.453125 C 3.25 -2.523438 2.910156 -2.617188 2.453125 -2.734375 C 1.867188 -2.859375 1.398438 -3.066406 1.046875 -3.359375 C 0.703125 -3.660156 0.53125 -4.066406 0.53125 -4.578125 C 0.53125 -4.847656 0.597656 -5.113281 0.734375 -5.375 C 0.878906 -5.632812 1.117188 -5.851562 1.453125 -6.03125 C 1.796875 -6.207031 2.242188 -6.296875 2.796875 -6.296875 Z M 2.796875 -6.296875 "/></g></g></g><g fill="#da4f94" fill-opacity="1"><g transform="translate(285.186341, 66.09944)"><g><path d="M 3.375 -6.296875 C 4.019531 -6.296875 4.566406 -6.15625 5.015625 -5.875 C 5.472656 -5.601562 5.8125 -5.222656 6.03125 -4.734375 C 6.257812 -4.253906 6.375 -3.707031 6.375 -3.09375 C 6.375 -2.4375 6.253906 -1.867188 6.015625 -1.390625 C 5.773438 -0.910156 5.425781 -0.539062 4.96875 -0.28125 C 4.519531 -0.0195312 3.992188 0.109375 3.390625 0.109375 C 2.742188 0.109375 2.191406 -0.0195312 1.734375 -0.28125 C 1.285156 -0.550781 0.945312 -0.925781 0.71875 -1.40625 C 0.488281 -1.882812 0.375 -2.4375 0.375 -3.0625 C 0.375 -3.71875 0.488281 -4.285156 0.71875 -4.765625 C 0.945312 -5.253906 1.285156 -5.628906 1.734375 -5.890625 C 2.179688 -6.160156 2.726562 -6.296875 3.375 -6.296875 Z M 1.65625 -3.09375 C 1.65625 -2.613281 1.734375 -2.210938 1.890625 -1.890625 C 2.046875 -1.578125 2.253906 -1.34375 2.515625 -1.1875 C 2.773438 -1.039062 3.0625 -0.96875 3.375 -0.96875 C 3.664062 -0.96875 3.9375 -1.035156 4.1875 -1.171875 C 4.445312 -1.304688 4.660156 -1.53125 4.828125 -1.84375 C 4.992188 -2.164062 5.078125 -2.585938 5.078125 -3.109375 C 5.078125 -3.734375 4.941406 -4.242188 4.671875 -4.640625 C 4.398438 -5.035156 3.96875 -5.234375 3.375 -5.234375 C 2.769531 -5.234375 2.332031 -5.03125 2.0625 -4.625 C 1.789062 -4.226562 1.65625 -3.71875 1.65625 -3.09375 Z M 1.65625 -3.09375 "/></g></g></g><g fill="#da4f94" fill-opacity="1"><g transform="translate(291.919145, 66.09944)"><g><path d="M 1.90625 -1.046875 L 5.03125 -1.046875 L 5.03125 0 L 0.671875 0 L 0.671875 -6.203125 L 1.90625 -6.203125 Z M 1.90625 -1.046875 "/></g></g></g><g fill="#da4f94" fill-opacity="1"><g transform="translate(297.206731, 66.09944)"><g><path d="M 1.875 -2.59375 C 1.875 -2.25 1.882812 -2.003906 1.90625 -1.859375 C 1.957031 -1.597656 2.078125 -1.382812 2.265625 -1.21875 C 2.460938 -1.050781 2.75 -0.96875 3.125 -0.96875 C 3.46875 -0.96875 3.722656 -1.03125 3.890625 -1.15625 C 4.066406 -1.28125 4.179688 -1.453125 4.234375 -1.671875 C 4.285156 -1.898438 4.3125 -2.207031 4.3125 -2.59375 L 4.3125 -6.203125 L 5.5625 -6.203125 L 5.5625 -2.796875 C 5.5625 -2.285156 5.539062 -1.867188 5.5 -1.546875 C 5.332031 -0.441406 4.550781 0.109375 3.15625 0.109375 C 2.414062 0.109375 1.859375 -0.015625 1.484375 -0.265625 C 1.117188 -0.523438 0.882812 -0.847656 0.78125 -1.234375 C 0.675781 -1.617188 0.625 -2.101562 0.625 -2.6875 L 0.625 -6.203125 L 1.875 -6.203125 Z M 1.875 -2.59375 "/></g></g></g><g fill="#da4f94" fill-opacity="1"><g transform="translate(303.454916, 66.09944)"><g><path d="M 5.09375 -5.15625 L 3.265625 -5.15625 L 3.265625 0 L 2.015625 0 L 2.015625 -5.15625 L 0.1875 -5.15625 L 0.1875 -6.203125 L 5.09375 -6.203125 Z M 5.09375 -5.15625 "/></g></g></g><g fill="#da4f94" fill-opacity="1"><g transform="translate(308.742503, 66.09944)"><g><path d="M 1.828125 0 L 0.59375 0 L 0.59375 -6.203125 L 1.828125 -6.203125 Z M 1.828125 0 "/></g></g></g><g fill="#da4f94" fill-opacity="1"><g transform="translate(311.148317, 66.09944)"><g><path d="M 3.375 -6.296875 C 4.019531 -6.296875 4.566406 -6.15625 5.015625 -5.875 C 5.472656 -5.601562 5.8125 -5.222656 6.03125 -4.734375 C 6.257812 -4.253906 6.375 -3.707031 6.375 -3.09375 C 6.375 -2.4375 6.253906 -1.867188 6.015625 -1.390625 C 5.773438 -0.910156 5.425781 -0.539062 4.96875 -0.28125 C 4.519531 -0.0195312 3.992188 0.109375 3.390625 0.109375 C 2.742188 0.109375 2.191406 -0.0195312 1.734375 -0.28125 C 1.285156 -0.550781 0.945312 -0.925781 0.71875 -1.40625 C 0.488281 -1.882812 0.375 -2.4375 0.375 -3.0625 C 0.375 -3.71875 0.488281 -4.285156 0.71875 -4.765625 C 0.945312 -5.253906 1.285156 -5.628906 1.734375 -5.890625 C 2.179688 -6.160156 2.726562 -6.296875 3.375 -6.296875 Z M 1.65625 -3.09375 C 1.65625 -2.613281 1.734375 -2.210938 1.890625 -1.890625 C 2.046875 -1.578125 2.253906 -1.34375 2.515625 -1.1875 C 2.773438 -1.039062 3.0625 -0.96875 3.375 -0.96875 C 3.664062 -0.96875 3.9375 -1.035156 4.1875 -1.171875 C 4.445312 -1.304688 4.660156 -1.53125 4.828125 -1.84375 C 4.992188 -2.164062 5.078125 -2.585938 5.078125 -3.109375 C 5.078125 -3.734375 4.941406 -4.242188 4.671875 -4.640625 C 4.398438 -5.035156 3.96875 -5.234375 3.375 -5.234375 C 2.769531 -5.234375 2.332031 -5.03125 2.0625 -4.625 C 1.789062 -4.226562 1.65625 -3.71875 1.65625 -3.09375 Z M 1.65625 -3.09375 "/></g></g></g><g fill="#da4f94" fill-opacity="1"><g transform="translate(317.881121, 66.09944)"><g><path d="M 4.390625 -2.0625 L 4.390625 -6.203125 L 5.546875 -6.203125 L 5.546875 0 L 4.296875 0 L 1.796875 -4.046875 L 1.796875 0 L 0.640625 0 L 0.640625 -6.203125 L 1.859375 -6.203125 Z M 4.390625 -2.0625 "/></g></g></g><g fill="#da4f94" fill-opacity="1"><g transform="translate(324.129306, 66.09944)"><g><path d="M 2.796875 -6.296875 C 3.484375 -6.296875 4.046875 -6.144531 4.484375 -5.84375 C 4.921875 -5.539062 5.148438 -5.066406 5.171875 -4.421875 L 3.90625 -4.375 C 3.875 -4.65625 3.769531 -4.875 3.59375 -5.03125 C 3.425781 -5.1875 3.15625 -5.265625 2.78125 -5.265625 C 2.519531 -5.265625 2.28125 -5.21875 2.0625 -5.125 C 1.84375 -5.039062 1.734375 -4.882812 1.734375 -4.65625 C 1.734375 -4.46875 1.828125 -4.316406 2.015625 -4.203125 C 2.210938 -4.085938 2.566406 -3.972656 3.078125 -3.859375 C 3.546875 -3.753906 3.929688 -3.640625 4.234375 -3.515625 C 4.535156 -3.390625 4.796875 -3.1875 5.015625 -2.90625 C 5.234375 -2.632812 5.34375 -2.265625 5.34375 -1.796875 C 5.34375 -1.566406 5.285156 -1.316406 5.171875 -1.046875 C 5.066406 -0.785156 4.890625 -0.554688 4.640625 -0.359375 C 4.453125 -0.210938 4.207031 -0.0976562 3.90625 -0.015625 C 3.601562 0.0664062 3.253906 0.109375 2.859375 0.109375 C 2.085938 0.109375 1.492188 -0.0625 1.078125 -0.40625 C 0.660156 -0.757812 0.40625 -1.296875 0.3125 -2.015625 L 1.53125 -2.125 C 1.65625 -1.332031 2.101562 -0.9375 2.875 -0.9375 C 3.28125 -0.9375 3.582031 -1.019531 3.78125 -1.1875 C 3.988281 -1.363281 4.09375 -1.566406 4.09375 -1.796875 C 4.09375 -1.960938 4.039062 -2.09375 3.9375 -2.1875 C 3.84375 -2.289062 3.6875 -2.378906 3.46875 -2.453125 C 3.25 -2.523438 2.910156 -2.617188 2.453125 -2.734375 C 1.867188 -2.859375 1.398438 -3.066406 1.046875 -3.359375 C 0.703125 -3.660156 0.53125 -4.066406 0.53125 -4.578125 C 0.53125 -4.847656 0.597656 -5.113281 0.734375 -5.375 C 0.878906 -5.632812 1.117188 -5.851562 1.453125 -6.03125 C 1.796875 -6.207031 2.242188 -6.296875 2.796875 -6.296875 Z M 2.796875 -6.296875 "/></g></g></g><g fill="#da4f94" fill-opacity="1"><g transform="translate(329.901521, 66.09944)"><g/></g></g><g fill="#da4f94" fill-opacity="1"><g transform="translate(332.307336, 66.09944)"><g><path d="M 1.53125 -4.3125 C 1.75 -4.3125 1.953125 -4.253906 2.140625 -4.140625 C 2.335938 -4.023438 2.492188 -3.875 2.609375 -3.6875 C 2.722656 -3.5 2.78125 -3.289062 2.78125 -3.0625 C 2.78125 -2.832031 2.722656 -2.617188 2.609375 -2.421875 C 2.492188 -2.234375 2.335938 -2.082031 2.140625 -1.96875 C 1.953125 -1.863281 1.75 -1.8125 1.53125 -1.8125 C 1.300781 -1.8125 1.085938 -1.863281 0.890625 -1.96875 C 0.703125 -2.082031 0.550781 -2.234375 0.4375 -2.421875 C 0.332031 -2.617188 0.28125 -2.832031 0.28125 -3.0625 C 0.28125 -3.28125 0.332031 -3.484375 0.4375 -3.671875 C 0.550781 -3.867188 0.703125 -4.023438 0.890625 -4.140625 C 1.085938 -4.253906 1.300781 -4.3125 1.53125 -4.3125 Z M 1.53125 -4.3125 "/></g></g></g></svg>